<svg width="60" height="20" viewBox="0 0 60 20" fill="none" xmlns="http://www.w3.org/2000/svg">
<path d="M24.6549 0.432007L21.6677 19.0211H26.4424L29.4278 0.432007H24.6549ZM39.0571 8.00418C37.3886 7.18021 36.3657 6.6241 36.3657 5.78136C36.3861 5.01513 37.2307 4.23013 39.1167 4.23013C40.6679 4.19116 41.8081 4.55572 42.673 4.91843L43.1063 5.11183L43.7555 1.22252C42.8124 0.857964 41.317 0.456282 39.47 0.456282C34.7549 0.456282 31.4347 2.90778 31.4141 6.41397C31.3752 9.00134 33.7912 10.4371 35.5993 11.2984C37.4463 12.1819 38.075 12.7548 38.075 13.5398C38.0546 14.745 36.5815 15.3011 35.207 15.3011C33.3024 15.3011 32.2793 15.0147 30.7262 14.3432L30.0975 14.0567L29.4298 18.0986C30.5514 18.5972 32.6141 19.036 34.7551 19.0585C39.766 19.0585 43.0266 16.6441 43.0676 12.9074C43.0839 10.8576 41.8099 9.28756 39.0571 8.00418V8.00418ZM55.9963 0.489535H52.3022C51.1638 0.489535 50.2989 0.81696 49.806 1.98508L42.7136 19.0211H47.7246L49.1046 15.3328H54.7108L55.4269 19.036H59.8464L55.9963 0.489535V0.489535ZM50.4943 11.6105C50.591 11.6199 52.4176 5.5896 52.4176 5.5896L53.8722 11.6105H50.4943V11.6105ZM17.6784 0.432007L13.0005 13.0616L12.4909 10.5709C11.6259 7.69715 8.91407 4.57428 5.8877 3.02304L10.1713 19.0026H15.2233L22.7304 0.434046H17.6784V0.432007V0.432007Z" fill="white"/>
<path d="M10.9167 2.82944C10.5521 1.41203 9.38952 0.456069 7.81054 0.435669H0.401981L0.325684 0.779617C6.10488 2.20437 10.9557 6.58839 12.5293 10.7121L10.9167 2.82944V2.82944Z" fill="#EFC75E"/>
</svg>
